<?xml version="1.0" standalone="no"?>
<!DOCTYPE svg PUBLIC "-//W3C//DTD SVG 20010904//EN"
 "http://www.w3.org/TR/2001/REC-SVG-20010904/DTD/svg10.dtd">
<svg version="1.0" xmlns="http://www.w3.org/2000/svg"
 width="24.000000pt" height="24.000000pt" viewBox="0 0 24.000000 24.000000"
 preserveAspectRatio="xMidYMid meet">
<metadata>
Created by potrace 1.16, written by Peter Selinger 2001-2019
</metadata>
<g transform="translate(0.000000,24.000000) scale(0.002000,-0.002000)"
fill="#000000" stroke="none">
<path d="M10250 10208 c-47 -45 -134 -129 -195 -186 -60 -58 -150 -144 -200
-192 -49 -47 -191 -183 -315 -300 -124 -118 -227 -217 -230 -220 -3 -3 -53
-50 -110 -105 -58 -55 -159 -151 -225 -215 -217 -208 -519 -496 -559 -532
l-39 -35 99 -54 c54 -30 102 -55 106 -57 4 -2 15 5 25 15 84 87 362 378 633
663 118 124 259 272 315 330 56 58 150 157 210 220 60 63 112 117 115 120 3 3
93 97 200 210 107 112 225 236 262 275 68 71 83 106 56 133 -28 28 -62 13
-148 -70z"/>
<path d="M7960 8004 c-176 -15 -376 -70 -475 -129 -185 -111 -260 -277 -290
-640 -10 -116 -34 -283 -49 -335 -36 -122 -107 -221 -197 -273 -102 -59 -311
-107 -469 -107 -165 1 -365 46 -610 140 -296 113 -404 140 -558 140 -207 0
-308 -48 -522 -246 -230 -213 -347 -285 -540 -333 -182 -45 -307 -38 -439 26
-94 45 -188 137 -286 282 -99 145 -174 240 -231 290 -67 60 -160 102 -238 108
-75 6 -75 6 -83 -114 -16 -245 90 -483 367 -827 54 -66 109 -132 122 -146 13
-14 68 -75 122 -135 55 -61 156 -171 225 -245 173 -185 243 -261 332 -360 205
-229 219 -248 265 -346 283 -605 842 -1213 1444 -1572 268 -160 534 -264 805
-313 157 -29 395 -31 535 -4 210 39 415 131 591 263 84 63 113 92 158 159 167
244 359 377 891 614 358 159 539 268 686 414 150 149 234 297 286 502 21 81
23 106 19 318 -8 522 -7 572 18 690 13 61 43 166 68 235 124 350 153 479 160
731 5 156 3 190 -17 290 -45 226 -120 372 -264 512 -51 50 -134 110 -196 142
-94 49 -380 171 -382 164 -2 -5 -32 -16 -68 -25 -94 -24 -270 -15 -420 20
-275 66 -329 77 -420 91 -106 15 -272 25 -340 19z m1330 -3556 c42 -46 20 -81
-100 -158 -122 -78 -461 -240 -502 -240 -46 0 -73 54 -49 99 5 9 49 35 98 56
154 68 339 164 409 215 77 54 113 61 144 28z m-828 -415 c21 -19 24 -75 6 -91
-7 -5 -53 -31 -103 -58 -259 -137 -444 -292 -563 -468 -55 -82 -82 -108 -197
-186 -256 -173 -566 -235 -900 -180 -184 30 -225 47 -225 94 0 58 50 79 130
56 63 -19 233 -40 325 -40 177 0 374 48 513 126 139 78 187 118 245 203 127
189 321 351 597 503 111 61 142 68 172 41z"/>
<path d="M4295 4523 c-39 -37 -119 -114 -180 -172 -247 -236 -310 -296 -525
-501 -124 -118 -273 -261 -332 -318 -59 -58 -113 -109 -119 -113 -8 -4 -40 7
-78 26 -174 90 -334 128 -536 128 -327 0 -614 -121 -842 -355 -124 -127 -211
-270 -270 -443 -100 -293 -78 -607 62 -890 200 -403 603 -655 1050 -655 455 0
865 259 1059 671 109 230 112 365 10 478 -159 177 -430 103 -499 -137 -55
-190 -200 -340 -390 -404 -100 -33 -271 -32 -364 1 -347 126 -507 508 -346
826 132 262 441 393 710 301 92 -32 188 -90 227 -140 43 -54 128 -90 213 -89
81 0 140 22 197 74 20 19 139 142 264 274 125 132 318 334 428 450 111 115
246 257 301 315 55 58 105 110 110 115 6 6 46 47 89 92 l78 81 -47 77 c-26 43
-80 143 -121 223 -41 80 -76 147 -77 148 -1 1 -34 -27 -72 -63z"/>
</g>
</svg>
